<?xml version="1.0" encoding="UTF-8" standalone="no"?>
<!DOCTYPE svg PUBLIC "-//W3C//DTD SVG 1.1//EN"
 "http://www.w3.org/Graphics/SVG/1.1/DTD/svg11.dtd">
<!-- Generated by graphviz version 2.43.0 (0)
 -->
<!-- Title: ProjectDependencies Pages: 1 -->
<svg width="792pt" height="545pt"
 viewBox="0.00 0.00 792.00 545.18" xmlns="http://www.w3.org/2000/svg" xmlns:xlink="http://www.w3.org/1999/xlink">
<g id="graph0" class="graph" transform="scale(0.68 0.68) rotate(0) translate(36 768)">
<title>ProjectDependencies</title>
<polygon fill="white" stroke="transparent" points="-36,36 -36,-768 1132,-768 1132,36 -36,36"/>
<text text-anchor="middle" x="548" y="-708.8" font-family="Arial Bold" font-size="24.00">Project Dependencies</text>
<g id="clust1" class="cluster">
<title>cluster_headers</title>
<path fill="#e8e8e8" stroke="#e8e8e8" d="M250,-10C250,-10 1076,-10 1076,-10 1082,-10 1088,-16 1088,-22 1088,-22 1088,-450 1088,-450 1088,-456 1082,-462 1076,-462 1076,-462 250,-462 250,-462 244,-462 238,-456 238,-450 238,-450 238,-22 238,-22 238,-16 244,-10 250,-10"/>
<text text-anchor="middle" x="663" y="-445.2" font-family="Arial Bold" font-size="16.00">Header Files</text>
</g>
<g id="clust6" class="cluster">
<title>cluster_sources</title>
<path fill="#e8e8e8" stroke="#e8e8e8" d="M20,-10C20,-10 156,-10 156,-10 162,-10 168,-16 168,-22 168,-22 168,-678 168,-678 168,-684 162,-690 156,-690 156,-690 20,-690 20,-690 14,-690 8,-684 8,-678 8,-678 8,-22 8,-22 8,-16 14,-10 20,-10"/>
<text text-anchor="middle" x="88" y="-673.2" font-family="Arial Bold" font-size="16.00">Source Files</text>
</g>
<!-- constants_h -->
<g id="node1" class="node">
<title>constants_h</title>
<path fill="#ffe6cc" stroke="black" d="M1068,-76C1068,-76 948,-76 948,-76 942,-76 936,-70 936,-64 936,-64 936,-30 936,-30 936,-24 942,-18 948,-18 948,-18 1068,-18 1068,-18 1074,-18 1080,-24 1080,-30 1080,-30 1080,-64 1080,-64 1080,-70 1074,-76 1068,-76"/>
<text text-anchor="middle" x="1008" y="-43.3" font-family="Arial" font-size="14.00">constants.h</text>
</g>
<!-- common_h -->
<g id="node2" class="node">
<title>common_h</title>
<path fill="#ffe6cc" stroke="black" d="M838,-326C838,-326 718,-326 718,-326 712,-326 706,-320 706,-314 706,-314 706,-280 706,-280 706,-274 712,-268 718,-268 718,-268 838,-268 838,-268 844,-268 850,-274 850,-280 850,-280 850,-314 850,-314 850,-320 844,-326 838,-326"/>
<text text-anchor="middle" x="778" y="-293.3" font-family="Arial" font-size="14.00">common.h</text>
</g>
<!-- player_h -->
<g id="node3" class="node">
<title>player_h</title>
<path fill="#dae8fc" stroke="black" d="M838,-76C838,-76 718,-76 718,-76 712,-76 706,-70 706,-64 706,-64 706,-30 706,-30 706,-24 712,-18 718,-18 718,-18 838,-18 838,-18 844,-18 850,-24 850,-30 850,-30 850,-64 850,-64 850,-70 844,-76 838,-76"/>
<text text-anchor="middle" x="778" y="-43.3" font-family="Arial" font-size="14.00">player.h</text>
</g>
<!-- player_h&#45;&gt;constants_h -->
<g id="edge1" class="edge">
<title>player_h&#45;&gt;constants_h</title>
<path fill="none" stroke="#666666" stroke-width="1.5" d="M850.14,-47C850.14,-47 925.72,-47 925.72,-47"/>
<polygon fill="#666666" stroke="#666666" stroke-width="1.5" points="925.72,-50.5 935.72,-47 925.72,-43.5 925.72,-50.5"/>
</g>
<!-- quiz_h -->
<g id="node4" class="node">
<title>quiz_h</title>
<path fill="#dae8fc" stroke="black" d="M608,-136C608,-136 488,-136 488,-136 482,-136 476,-130 476,-124 476,-124 476,-90 476,-90 476,-84 482,-78 488,-78 488,-78 608,-78 608,-78 614,-78 620,-84 620,-90 620,-90 620,-124 620,-124 620,-130 614,-136 608,-136"/>
<text text-anchor="middle" x="548" y="-103.3" font-family="Arial" font-size="14.00">quiz.h</text>
</g>
<!-- quiz_h&#45;&gt;common_h -->
<g id="edge3" class="edge">
<title>quiz_h&#45;&gt;common_h</title>
<path fill="none" stroke="#666666" stroke-width="1.5" d="M620.23,-116.67C683.02,-116.67 764,-116.67 764,-116.67 764,-116.67 764,-257.62 764,-257.62"/>
<polygon fill="#666666" stroke="#666666" stroke-width="1.5" points="760.5,-257.62 764,-267.62 767.5,-257.63 760.5,-257.62"/>
</g>
<!-- quiz_h&#45;&gt;player_h -->
<g id="edge4" class="edge">
<title>quiz_h&#45;&gt;player_h</title>
<path fill="none" stroke="#666666" stroke-width="1.5" d="M620.18,-97.33C692.45,-97.33 793,-97.33 793,-97.33 793,-97.33 793,-86.28 793,-86.28"/>
<polygon fill="#666666" stroke="#666666" stroke-width="1.5" points="796.5,-86.28 793,-76.28 789.5,-86.28 796.5,-86.28"/>
</g>
<!-- debug_h -->
<g id="node5" class="node">
<title>debug_h</title>
<path fill="#dae8fc" stroke="black" d="M608,-312C608,-312 488,-312 488,-312 482,-312 476,-306 476,-300 476,-300 476,-266 476,-266 476,-260 482,-254 488,-254 488,-254 608,-254 608,-254 614,-254 620,-260 620,-266 620,-266 620,-300 620,-300 620,-306 614,-312 608,-312"/>
<text text-anchor="middle" x="548" y="-279.3" font-family="Arial" font-size="14.00">debug.h</text>
</g>
<!-- client_h -->
<g id="node6" class="node">
<title>client_h</title>
<path fill="#d5e8d4" stroke="black" d="M608,-428C608,-428 488,-428 488,-428 482,-428 476,-422 476,-416 476,-416 476,-382 476,-382 476,-376 482,-370 488,-370 488,-370 608,-370 608,-370 614,-370 620,-376 620,-382 620,-382 620,-416 620,-416 620,-422 614,-428 608,-428"/>
<text text-anchor="middle" x="548" y="-395.3" font-family="Arial" font-size="14.00">client.h</text>
</g>
<!-- client_h&#45;&gt;common_h -->
<g id="edge2" class="edge">
<title>client_h&#45;&gt;common_h</title>
<path fill="none" stroke="#666666" stroke-width="1.5" d="M548,-369.64C548,-347.64 548,-321.33 548,-321.33 548,-321.33 695.86,-321.33 695.86,-321.33"/>
<polygon fill="#666666" stroke="#666666" stroke-width="1.5" points="695.86,-324.83 705.86,-321.33 695.86,-317.83 695.86,-324.83"/>
</g>
<!-- server_h -->
<g id="node7" class="node">
<title>server_h</title>
<path fill="#d5e8d4" stroke="black" d="M378,-192C378,-192 258,-192 258,-192 252,-192 246,-186 246,-180 246,-180 246,-146 246,-146 246,-140 252,-134 258,-134 258,-134 378,-134 378,-134 384,-134 390,-140 390,-146 390,-146 390,-180 390,-180 390,-186 384,-192 378,-192"/>
<text text-anchor="middle" x="318" y="-159.3" font-family="Arial" font-size="14.00">server.h</text>
</g>
<!-- server_h&#45;&gt;common_h -->
<g id="edge5" class="edge">
<title>server_h&#45;&gt;common_h</title>
<path fill="none" stroke="#666666" stroke-width="1.5" d="M390.16,-178C509.51,-178 735,-178 735,-178 735,-178 735,-257.89 735,-257.89"/>
<polygon fill="#666666" stroke="#666666" stroke-width="1.5" points="731.5,-257.89 735,-267.89 738.5,-257.89 731.5,-257.89"/>
</g>
<!-- server_h&#45;&gt;player_h -->
<g id="edge6" class="edge">
<title>server_h&#45;&gt;player_h</title>
<path fill="none" stroke="#666666" stroke-width="1.5" d="M390.21,-164C529.57,-164 822,-164 822,-164 822,-164 822,-86.22 822,-86.22"/>
<polygon fill="#666666" stroke="#666666" stroke-width="1.5" points="825.5,-86.22 822,-76.22 818.5,-86.22 825.5,-86.22"/>
</g>
<!-- server_h&#45;&gt;quiz_h -->
<g id="edge7" class="edge">
<title>server_h&#45;&gt;quiz_h</title>
<path fill="none" stroke="#666666" stroke-width="1.5" d="M390.14,-150C457.59,-150 548,-150 548,-150 548,-150 548,-146.39 548,-146.39"/>
<polygon fill="#666666" stroke="#666666" stroke-width="1.5" points="551.5,-146.39 548,-136.39 544.5,-146.39 551.5,-146.39"/>
</g>
<!-- server_h&#45;&gt;debug_h -->
<g id="edge8" class="edge">
<title>server_h&#45;&gt;debug_h</title>
<path fill="none" stroke="#666666" stroke-width="1.5" d="M342,-192.08C342,-223.59 342,-269.43 342,-269.43 342,-269.43 465.95,-269.43 465.95,-269.43"/>
<polygon fill="#666666" stroke="#666666" stroke-width="1.5" points="465.95,-272.93 475.95,-269.43 465.95,-265.93 465.95,-272.93"/>
</g>
<!-- score_h -->
<g id="node8" class="node">
<title>score_h</title>
<path fill="#d5e8d4" stroke="black" d="M378,-76C378,-76 258,-76 258,-76 252,-76 246,-70 246,-64 246,-64 246,-30 246,-30 246,-24 252,-18 258,-18 258,-18 378,-18 378,-18 384,-18 390,-24 390,-30 390,-30 390,-64 390,-64 390,-70 384,-76 378,-76"/>
<text text-anchor="middle" x="318" y="-43.3" font-family="Arial" font-size="14.00">score.h</text>
</g>
<!-- score_h&#45;&gt;server_h -->
<g id="edge9" class="edge">
<title>score_h&#45;&gt;server_h</title>
<path fill="none" stroke="#666666" stroke-width="1.5" d="M318,-76.27C318,-76.27 318,-123.74 318,-123.74"/>
<polygon fill="#666666" stroke="#666666" stroke-width="1.5" points="314.5,-123.74 318,-133.74 321.5,-123.74 314.5,-123.74"/>
</g>
<!-- client_c -->
<g id="node9" class="node">
<title>client_c</title>
<path fill="#f8cecc" stroke="black" d="M148,-656C148,-656 28,-656 28,-656 22,-656 16,-650 16,-644 16,-644 16,-610 16,-610 16,-604 22,-598 28,-598 28,-598 148,-598 148,-598 154,-598 160,-604 160,-610 160,-610 160,-644 160,-644 160,-650 154,-656 148,-656"/>
<text text-anchor="middle" x="88" y="-623.3" font-family="Arial" font-size="14.00">client.c</text>
</g>
<!-- client_c&#45;&gt;common_h -->
<g id="edge10" class="edge">
<title>client_c&#45;&gt;common_h</title>
<path fill="none" stroke="#666666" stroke-width="1.5" d="M160.06,-641.5C341.35,-641.5 802,-641.5 802,-641.5 802,-641.5 802,-336.07 802,-336.07"/>
<polygon fill="#666666" stroke="#666666" stroke-width="1.5" points="805.5,-336.07 802,-326.07 798.5,-336.08 805.5,-336.07"/>
</g>
<!-- client_c&#45;&gt;debug_h -->
<g id="edge11" class="edge">
<title>client_c&#45;&gt;debug_h</title>
<path fill="none" stroke="#666666" stroke-width="1.5" d="M160.42,-612.5C196.28,-612.5 232,-612.5 232,-612.5 232,-612.5 232,-300.29 232,-300.29 232,-300.29 465.9,-300.29 465.9,-300.29"/>
<polygon fill="#666666" stroke="#666666" stroke-width="1.5" points="465.9,-303.79 475.9,-300.29 465.9,-296.79 465.9,-303.79"/>
</g>
<!-- client_c&#45;&gt;client_h -->
<g id="edge12" class="edge">
<title>client_c&#45;&gt;client_h</title>
<path fill="none" stroke="#666666" stroke-width="1.5" d="M160.13,-627C289.59,-627 548,-627 548,-627 548,-627 548,-438.34 548,-438.34"/>
<polygon fill="#666666" stroke="#666666" stroke-width="1.5" points="551.5,-438.34 548,-428.34 544.5,-438.34 551.5,-438.34"/>
</g>
<!-- common_c -->
<g id="node10" class="node">
<title>common_c</title>
<path fill="#f8cecc" stroke="black" d="M148,-540C148,-540 28,-540 28,-540 22,-540 16,-534 16,-528 16,-528 16,-494 16,-494 16,-488 22,-482 28,-482 28,-482 148,-482 148,-482 154,-482 160,-488 160,-494 160,-494 160,-528 160,-528 160,-534 154,-540 148,-540"/>
<text text-anchor="middle" x="88" y="-507.3" font-family="Arial" font-size="14.00">common.c</text>
</g>
<!-- common_c&#45;&gt;common_h -->
<g id="edge13" class="edge">
<title>common_c&#45;&gt;common_h</title>
<path fill="none" stroke="#666666" stroke-width="1.5" d="M160.22,-520.67C332.64,-520.67 754,-520.67 754,-520.67 754,-520.67 754,-336.24 754,-336.24"/>
<polygon fill="#666666" stroke="#666666" stroke-width="1.5" points="757.5,-336.24 754,-326.24 750.5,-336.24 757.5,-336.24"/>
</g>
<!-- common_c&#45;&gt;debug_h -->
<g id="edge14" class="edge">
<title>common_c&#45;&gt;debug_h</title>
<path fill="none" stroke="#666666" stroke-width="1.5" d="M160.22,-501.33C190.15,-501.33 218,-501.33 218,-501.33 218,-501.33 218,-292.57 218,-292.57 218,-292.57 465.99,-292.57 465.99,-292.57"/>
<polygon fill="#666666" stroke="#666666" stroke-width="1.5" points="465.99,-296.07 475.99,-292.57 465.99,-289.07 465.99,-296.07"/>
</g>
<!-- player_c -->
<g id="node11" class="node">
<title>player_c</title>
<path fill="#f8cecc" stroke="black" d="M148,-76C148,-76 28,-76 28,-76 22,-76 16,-70 16,-64 16,-64 16,-30 16,-30 16,-24 22,-18 28,-18 28,-18 148,-18 148,-18 154,-18 160,-24 160,-30 160,-30 160,-64 160,-64 160,-70 154,-76 148,-76"/>
<text text-anchor="middle" x="88" y="-43.3" font-family="Arial" font-size="14.00">player.c</text>
</g>
<!-- player_c&#45;&gt;player_h -->
<g id="edge15" class="edge">
<title>player_c&#45;&gt;player_h</title>
<path fill="none" stroke="#666666" stroke-width="1.5" d="M88,-17.77C88,-8.21 88,0 88,0 88,0 778,0 778,0 778,0 778,-7.77 778,-7.77"/>
<polygon fill="#666666" stroke="#666666" stroke-width="1.5" points="774.5,-7.77 778,-17.77 781.5,-7.77 774.5,-7.77"/>
</g>
<!-- quiz_c -->
<g id="node12" class="node">
<title>quiz_c</title>
<path fill="#f8cecc" stroke="black" d="M148,-308C148,-308 28,-308 28,-308 22,-308 16,-302 16,-296 16,-296 16,-262 16,-262 16,-256 22,-250 28,-250 28,-250 148,-250 148,-250 154,-250 160,-256 160,-262 160,-262 160,-296 160,-296 160,-302 154,-308 148,-308"/>
<text text-anchor="middle" x="88" y="-275.3" font-family="Arial" font-size="14.00">quiz.c</text>
</g>
<!-- quiz_c&#45;&gt;common_h -->
<g id="edge16" class="edge">
<title>quiz_c&#45;&gt;common_h</title>
<path fill="none" stroke="#666666" stroke-width="1.5" d="M88,-308.31C88,-313.17 88,-316.67 88,-316.67 88,-316.67 695.79,-316.67 695.79,-316.67"/>
<polygon fill="#666666" stroke="#666666" stroke-width="1.5" points="695.79,-320.17 705.79,-316.67 695.79,-313.17 695.79,-320.17"/>
</g>
<!-- quiz_c&#45;&gt;player_h -->
<g id="edge17" class="edge">
<title>quiz_c&#45;&gt;player_h</title>
<path fill="none" stroke="#666666" stroke-width="1.5" d="M160.32,-277.14C261.49,-277.14 433,-277.14 433,-277.14 433,-277.14 433,-47 433,-47 433,-47 695.68,-47 695.68,-47"/>
<polygon fill="#666666" stroke="#666666" stroke-width="1.5" points="695.68,-50.5 705.68,-47 695.68,-43.5 695.68,-50.5"/>
</g>
<!-- quiz_c&#45;&gt;quiz_h -->
<g id="edge18" class="edge">
<title>quiz_c&#45;&gt;quiz_h</title>
<path fill="none" stroke="#666666" stroke-width="1.5" d="M160.06,-261.71C176.38,-261.71 189,-261.71 189,-261.71 189,-261.71 189,-115.33 189,-115.33 189,-115.33 465.78,-115.33 465.78,-115.33"/>
<polygon fill="#666666" stroke="#666666" stroke-width="1.5" points="465.78,-118.83 475.78,-115.33 465.78,-111.83 465.78,-118.83"/>
</g>
<!-- quiz_c&#45;&gt;debug_h -->
<g id="edge19" class="edge">
<title>quiz_c&#45;&gt;debug_h</title>
<path fill="none" stroke="#666666" stroke-width="1.5" d="M160.13,-284.86C160.13,-284.86 465.96,-284.86 465.96,-284.86"/>
<polygon fill="#666666" stroke="#666666" stroke-width="1.5" points="465.96,-288.36 475.96,-284.86 465.96,-281.36 465.96,-288.36"/>
</g>
<!-- score_c -->
<g id="node13" class="node">
<title>score_c</title>
<path fill="#f8cecc" stroke="black" d="M148,-424C148,-424 28,-424 28,-424 22,-424 16,-418 16,-412 16,-412 16,-378 16,-378 16,-372 22,-366 28,-366 28,-366 148,-366 148,-366 154,-366 160,-372 160,-378 160,-378 160,-412 160,-412 160,-418 154,-424 148,-424"/>
<text text-anchor="middle" x="88" y="-391.3" font-family="Arial" font-size="14.00">score.c</text>
</g>
<!-- score_c&#45;&gt;server_h -->
<g id="edge20" class="edge">
<title>score_c&#45;&gt;server_h</title>
<path fill="none" stroke="#666666" stroke-width="1.5" d="M160.05,-406C219.45,-406 294,-406 294,-406 294,-406 294,-202.31 294,-202.31"/>
<polygon fill="#666666" stroke="#666666" stroke-width="1.5" points="297.5,-202.31 294,-192.31 290.5,-202.31 297.5,-202.31"/>
</g>
<!-- score_c&#45;&gt;score_h -->
<g id="edge21" class="edge">
<title>score_c&#45;&gt;score_h</title>
<path fill="none" stroke="#666666" stroke-width="1.5" d="M160.18,-388C183.28,-388 203,-388 203,-388 203,-388 203,-56.67 203,-56.67 203,-56.67 235.82,-56.67 235.82,-56.67"/>
<polygon fill="#666666" stroke="#666666" stroke-width="1.5" points="235.82,-60.17 245.82,-56.67 235.82,-53.17 235.82,-60.17"/>
</g>
<!-- server_c -->
<g id="node14" class="node">
<title>server_c</title>
<path fill="#f8cecc" stroke="black" d="M148,-192C148,-192 28,-192 28,-192 22,-192 16,-186 16,-180 16,-180 16,-146 16,-146 16,-140 22,-134 28,-134 28,-134 148,-134 148,-134 154,-134 160,-140 160,-146 160,-146 160,-180 160,-180 160,-186 154,-192 148,-192"/>
<text text-anchor="middle" x="88" y="-159.3" font-family="Arial" font-size="14.00">server.c</text>
</g>
<!-- server_c&#45;&gt;quiz_h -->
<g id="edge22" class="edge">
<title>server_c&#45;&gt;quiz_h</title>
<path fill="none" stroke="#666666" stroke-width="1.5" d="M88,-133.71C88,-115.94 88,-96.67 88,-96.67 88,-96.67 465.87,-96.67 465.87,-96.67"/>
<polygon fill="#666666" stroke="#666666" stroke-width="1.5" points="465.87,-100.17 475.87,-96.67 465.87,-93.17 465.87,-100.17"/>
</g>
<!-- server_c&#45;&gt;server_h -->
<g id="edge23" class="edge">
<title>server_c&#45;&gt;server_h</title>
<path fill="none" stroke="#666666" stroke-width="1.5" d="M160.14,-172.67C160.14,-172.67 235.72,-172.67 235.72,-172.67"/>
<polygon fill="#666666" stroke="#666666" stroke-width="1.5" points="235.72,-176.17 245.72,-172.67 235.72,-169.17 235.72,-176.17"/>
</g>
<!-- server_c&#45;&gt;score_h -->
<g id="edge24" class="edge">
<title>server_c&#45;&gt;score_h</title>
<path fill="none" stroke="#666666" stroke-width="1.5" d="M160.24,-153.33C169.04,-153.33 175,-153.33 175,-153.33 175,-153.33 175,-37.33 175,-37.33 175,-37.33 235.66,-37.33 235.66,-37.33"/>
<polygon fill="#666666" stroke="#666666" stroke-width="1.5" points="235.66,-40.83 245.66,-37.33 235.66,-33.83 235.66,-40.83"/>
</g>
</g>
</svg>
